<svg xmlns="http://www.w3.org/2000/svg" xmlns:xlink="http://www.w3.org/1999/xlink" width="128" height="128" viewBox="0 0 128 128"><filter id="a" width="100%" height="100%" x="0%" y="0%"><feColorMatrix in="SourceGraphic" type="matrix" values="0 0 0 0 1 0 0 0 0 1 0 0 0 0 1 0 0 0 1 0"/></filter><mask id="b"><g filter="url(#a)"><rect width="128" height="128" fill-opacity=".1"/></g></mask><clipPath id="c"><rect width="192" height="152"/></clipPath><mask id="d"><g filter="url(#a)"><rect width="128" height="128" fill-opacity=".1"/></g></mask><clipPath id="e"><rect width="192" height="152"/></clipPath><mask id="f"><g filter="url(#a)"><rect width="128" height="128" fill-opacity=".1"/></g></mask><clipPath id="g"><rect width="192" height="152"/></clipPath><path fill="#1f8254" d="m 67.042969 12 l -13.980469 24 h -26.75 l -13.980469 24 h -2.332031 v 4 l 16.3125 28 h 26.75 l 13.980469 24 h 32.621093 l 1.160157 -1.992188 l 15.148437 -26.007812 h 0.027344 v -4 h -2.355469 l -11.652343 -20 l 13.980468 -24 h 0.027344 v -4 h -2.355469 l -13.980469 -24 z m 0 0"/><path fill="#26a269" d="m 67.042969 8 l -13.980469 24 h -26.75 l -16.3125 28 l 16.3125 28 h 26.75 l 13.980469 24 h 32.621093 l 1.160157 -1.992188 l 15.148437 -26.007812 l -13.980468 -24 l 13.980468 -24 l -16.308594 -28 z m 0 0"/><path fill="#2ec27e" d="m 30.949219 41.964844 h 23.34375 l 11.667969 20.035156 l -11.667969 20.035156 h -23.34375 l -11.667969 -20.035156 z m 0 0"/><path fill="#2ec27e" d="m 19.28125 62 h 46.71875 v -2 h -46.71875 z m 0 0"/><path fill="#57e389" d="m 30.949219 39.964844 h 23.34375 l 11.667969 20.035156 l -11.667969 20.035156 h -23.34375 l -11.667969 -20.035156 z m 0 0"/><path fill="#2ec27e" d="m 95.023438 17.964844 h -23.339844 l -11.671875 20.035156 l 11.671875 20.035156 h 23.339844 l 11.671874 -20.035156 z m 0 0"/><path fill="#2ec27e" d="m 106.714844 38 h -46.722656 v -2 h 46.722656 z m 0 0"/><path fill="#57e389" d="m 95.023438 15.964844 h -23.339844 l -11.671875 20.035156 l 11.671875 20.035156 h 23.339844 l 11.671874 -20.035156 z m 0 0"/><path fill="#2ec27e" d="m 95.023438 65.964844 h -23.339844 l -11.671875 20.035156 l 11.671875 20.035156 h 23.339844 l 11.671874 -20.035156 z m 0 0"/><path fill="#2ec27e" d="m 106.714844 86 h -46.722656 v -2 h 46.722656 z m 0 0"/><path fill="#57e389" d="m 95.023438 63.964844 h -23.339844 l -11.671875 20.035156 l 11.671875 20.035156 h 23.339844 l 11.671874 -20.035156 z m 0 0"/><path fill="#196c46" fill-rule="evenodd" d="m 53.0625 88 h -26.75 v 4 h 26.75 z m 0 0"/><path fill="#196c46" fill-rule="evenodd" d="m 99.664062 112 h -32.621093 v 4 h 32.621093 z m 0 0"/><g clip-path="url(#c)" mask="url(#b)" transform="matrix(1 0 0 1 -8 -16)"><path fill-rule="evenodd" d="m 62.292969 96.035156 h -23.34375 v 2 h 23.34375 z m 0 0"/></g><g clip-path="url(#e)" mask="url(#d)" transform="matrix(1 0 0 1 -8 -16)"><path fill-rule="evenodd" d="m 103.023438 120.035156 h -23.339844 v 2 h 23.339844 z m 0 0"/></g><g clip-path="url(#g)" mask="url(#f)" transform="matrix(1 0 0 1 -8 -16)"><path fill-rule="evenodd" d="m 103.023438 72.035156 h -23.339844 v 2 h 23.339844 z m 0 0"/></g></svg>